<svg xmlns="http://www.w3.org/2000/svg" xml:space="preserve" width="43.321" height="43.321" fill-rule="evenodd" stroke-linejoin="round" stroke-miterlimit="2" clip-rule="evenodd"><g style="stroke:#4063d8"><path d="M-3.146 10.072V-2.763H9.69" style="opacity:1;fill:none;stroke:#4063d8;stroke-width:3;stroke-linecap:square;stroke-linejoin:miter;stroke-dasharray:none" transform="translate(4.646 4.263)"/><path d="M37.176 24.724v12.835H24.34M37.176 10.072V-2.763H24.34M-3.146 24.724v12.835H9.69" style="fill:none;stroke:#4063d8;stroke-width:3;stroke-linecap:square;stroke-linejoin:miter;stroke-dasharray:none" transform="translate(4.646 4.263)"/></g><path d="M21.662 7.938A13.723 13.723 0 0 0 7.937 21.661a13.723 13.723 0 0 0 13.725 13.722 13.723 13.723 0 0 0 13.722-13.722A13.723 13.723 0 0 0 21.662 7.938m-8.04 6.139h3.126v15.168h-3.125zm6.032 0h4.678c2.041 0 3.703.666 4.988 2 1.292 1.333 1.937 3.083 1.937 5.25v.677c0 2.167-.645 3.917-1.937 5.25-1.285 1.327-2.962 1.99-5.031 1.99h-4.635zm3.135 2.53v10.116h1.5c1.229 0 2.163-.398 2.802-1.197.646-.799.977-1.942.99-3.428v-.79c0-1.543-.306-2.706-.917-3.491-.605-.785-1.516-1.188-2.739-1.21z" style="fill:#9558b2;stroke:none;stroke-width:3.77953;stroke-linecap:round;stroke-linejoin:round"/></svg>